<?xml version="1.0" encoding="utf-8"?>
<!-- Generator: Adobe Illustrator 23.1.0, SVG Export Plug-In . SVG Version: 6.00 Build 0)  -->
<svg version="1.1" xmlns="http://www.w3.org/2000/svg" xmlns:xlink="http://www.w3.org/1999/xlink" x="0px" y="0px"
	 viewBox="0 0 1024 1024" style="enable-background:new 0 0 1024 1024;" xml:space="preserve">
<style type="text/css">
	.st0{fill:none;stroke:#000000;stroke-width:20;stroke-miterlimit:10;}
	.st1{fill:none;stroke:#000000;stroke-width:10;stroke-miterlimit:10;}
	.st2{fill:none;stroke:#000000;stroke-width:16;stroke-miterlimit:10;}
</style>
<g id="Box">
	<path class="st0" d="M882,872H142c-11,0-20-9-20-20V172c0-11,9-20,20-20h740c11,0,20,9,20,20v680C902,863,893,872,882,872z"/>
</g>
<g id="Wheel">
	<path class="st1" d="M465.98,671.02c20.02-10.5,47.91-28.06,75.22-56.34c23.82-24.67,39.25-49.28,49.02-67.9"/>
	<path class="st1" d="M589.42,476.42c-19.66-10.04-47.61-27.2-74.86-55.42c-23.89-24.74-39.05-49.49-48.44-67.88"/>
	<path class="st1" d="M400,512c20.92,6.19,50.87,12.64,87.2,12.68c36.62,0.04,66.79-6.46,87.8-12.68"/>
	<path class="st1" d="M625,287c-6.82,19.76-14.84,50.48-14.68,88.64c0.16,37.02,7.95,66.88,14.68,86.36"/>
	<path class="st1" d="M659.78,477.22c10.59-19.89,28.02-47.26,55.69-74.21c24.9-24.25,49.75-40.03,68.55-50.03"/>
	<path class="st1" d="M783.08,670.08c-8.93-18.48-24.59-45.44-51.08-71.96c-26.62-26.65-53.69-42.39-72.22-51.34"/>
	<path class="st1" d="M675,512c20.54-6.73,51.71-14.32,90.12-13.96c35.82,0.33,65.04,7.46,84.88,13.96"/>
	<path class="st1" d="M625,562c6.08,20.52,12.25,49.15,12.68,83.64c0.48,38.19-6.25,69.65-12.68,91.36"/>
	<circle class="st2" cx="625" cy="512" r="225"/>
	<circle class="st1" cx="625" cy="512" r="50"/>
</g>
<g id="Wind">
	<path class="st1" d="M314.02,782.29c7.89,4.95,17.82,4.42,24.57-1.1c5.78-4.72,8.41-12.43,6.95-19.42
		c-1.97-9.48-11.26-16.71-22.31-16.56c-41.91-0.22-83.82-0.44-125.72-0.66c-8.93-0.1-16.67-4.85-19.69-12.06
		c-0.42-1.01-2.95-7.3,0-13.86c3.16-7.05,11.29-11.43,20.35-10.72c38.14,0.31,69.82,0.35,94.57,0.6c6.32,0.06,18.02,0.2,23.54-7.4
		c4.34-5.98,5.2-17.22-2.12-24.22c-6-5.73-15.5-6.69-22.96-2.11"/>
	<path class="st1" d="M190.49,772.54c26.55,0,53.1,0,79.65,0c0.98,0.06,9.15,0.69,13.8,7.71c4.09,6.16,3.44,14.17-0.54,19.8
		c-4.79,6.77-13.53,8.86-20.5,6.6c-6.27-2.03-9.43-7.04-10.31-8.56"/>
</g>
<g id="Decor">
	<line class="st0" x1="185" y1="268.72" x2="335" y2="268.72"/>
	<line class="st0" x1="185" y1="331.28" x2="335" y2="331.28"/>
</g>
</svg>
